# xmcd
# Copyright (C) 1995-1998 Ti Kan
#
# Track frame offsets:
#       150
#       15024
#       27660
#       45298
#       65454
#       87400
#       112550
#       128010
#       140879
#       155757
#       172213
#       190697
#       206581
#
# Disc length: 3012 seconds
#
# Revision: 2
# Processed by: cddbd v1.5.2PL0 Copyright (c) Steve Scherf et al.
# Submitted via: CD-Transfer v1.0
#
DISCID=a90bc20d
DTITLE=Coal - Masquerade
DYEAR=2007
DGENRE=
TTITLE0=Unlock My Love
TTITLE1=The Roundabout Blues
TTITLE2=Who Will Go? (Eeny, Meeny, Miny, Moe)
TTITLE3=Outside The Black Cathedral
TTITLE4=Call Up The Handyman
TTITLE5=Applause For Tears
TTITLE6=Couldn't Change
TTITLE7=Crying In The Whorehouse
TTITLE8=Don't Need Love
TTITLE9=Here's To A New Beginning
TTITLE10=Keep Movin' On
TTITLE11=The Bell On The Hill
TTITLE12=Rest In Sleep
EXTD=
EXTT0=
EXTT1=
EXTT2=
EXTT3=
EXTT4=
EXTT5=
EXTT6=
EXTT7=
EXTT8=
EXTT9=
EXTT10=
EXTT11=
EXTT12=
PLAYORDER=
